<svg width="40" height="38" viewBox="0 0 40 38" fill="none" xmlns="http://www.w3.org/2000/svg">
<path d="M25.8125 7L24.7125 4.6L22.3125 3.5L24.7125 2.4L25.8125 0L26.9125 2.4L29.3125 3.5L26.9125 4.6L25.8125 7ZM27.8125 14L27.0125 12.3L25.3125 11.5L27.0125 10.7L27.8125 9L28.6125 10.7L30.3125 11.5L28.6125 12.3L27.8125 14ZM14.8125 20L14.5125 17.65C14.3958 17.6 14.2708 17.5333 14.1375 17.45C14.0041 17.3667 13.8958 17.2833 13.8125 17.2L11.6125 18.15L9.13745 13.8L11.0125 12.4C11.0125 12.2667 11.0125 12.1333 11.0125 12C11.0125 11.8667 11.0125 11.7333 11.0125 11.6L9.13745 10.2L11.6125 5.85L13.8125 6.8C13.8958 6.71667 14.0041 6.63333 14.1375 6.55C14.2708 6.46667 14.3958 6.4 14.5125 6.35L14.8125 4H19.8125L20.1125 6.35C20.2291 6.4 20.3541 6.46667 20.4875 6.55C20.6208 6.63333 20.7291 6.71667 20.8125 6.8L23.0125 5.85L25.4875 10.2L23.6125 11.6C23.6125 11.7333 23.6125 11.8667 23.6125 12C23.6125 12.1333 23.6125 12.2667 23.6125 12.4L25.4875 13.8L23.0125 18.15L20.8125 17.2C20.7291 17.2833 20.6208 17.3667 20.4875 17.45C20.3541 17.5333 20.2291 17.6 20.1125 17.65L19.8125 20H14.8125ZM17.3125 15C18.1458 15 18.8541 14.7083 19.4375 14.125C20.0208 13.5417 20.3125 12.8333 20.3125 12C20.3125 11.1667 20.0208 10.4583 19.4375 9.875C18.8541 9.29167 18.1458 9 17.3125 9C16.4791 9 15.7708 9.29167 15.1875 9.875C14.6041 10.4583 14.3125 11.1667 14.3125 12C14.3125 12.8333 14.6041 13.5417 15.1875 14.125C15.7708 14.7083 16.4791 15 17.3125 15ZM16.5625 18H18.0625L18.2625 16.2C18.7458 16.0667 19.1583 15.8958 19.5 15.6875C19.8416 15.4792 20.1791 15.2 20.5125 14.85L22.1625 15.6L22.8625 14.35L21.4125 13.25C21.5458 12.8667 21.6125 12.45 21.6125 12C21.6125 11.55 21.5458 11.1333 21.4125 10.75L22.8625 9.65L22.1625 8.4L20.5125 9.15C20.1791 8.8 19.8416 8.52083 19.5 8.3125C19.1583 8.10417 18.7458 7.93333 18.2625 7.8L18.0625 6H16.5625L16.3625 7.8C15.8791 7.93333 15.4666 8.10417 15.125 8.3125C14.7833 8.52083 14.4458 8.8 14.1125 9.15L12.4625 8.4L11.7625 9.65L13.2125 10.75C13.0791 11.1333 13.0083 11.55 13 12C12.9916 12.45 13.0625 12.8667 13.2125 13.25L11.7625 14.35L12.4625 15.6L14.1125 14.85C14.4458 15.2 14.7833 15.4792 15.125 15.6875C15.4666 15.8958 15.8791 16.0667 16.3625 16.2L16.5625 18Z" fill="#4F453C"/>
<path d="M0.364602 33L3.70904 23.9H5.12662L8.46045 33H7.07926L4.41014 25.4658L1.72615 33H0.364602ZM1.87709 30.7461L2.2369 29.7091H6.51808L6.8755 30.7461H1.87709ZM12.2661 33.156C11.6494 33.156 11.1045 33.006 10.6312 32.706C10.1579 32.406 9.78938 31.9948 9.52567 31.4724C9.26196 30.9501 9.1301 30.3575 9.1301 29.6945C9.1301 29.0254 9.26259 28.4311 9.52758 27.9117C9.79257 27.3924 10.1643 26.9839 10.6427 26.6863C11.1211 26.3887 11.6722 26.2399 12.2961 26.2399C12.8066 26.2399 13.2546 26.3411 13.6401 26.5434C14.0255 26.7457 14.3271 27.0304 14.5447 27.3975V23.64H15.8446V33H14.6773L14.5489 31.9781C14.4147 32.1826 14.2437 32.3747 14.0359 32.5545C13.8281 32.7342 13.5786 32.8794 13.2872 32.9901C12.9958 33.1007 12.6554 33.156 12.2661 33.156ZM12.4904 32.0253C12.8964 32.0253 13.2532 31.9287 13.5607 31.7354C13.8683 31.5421 14.1072 31.2709 14.2775 30.9216C14.4478 30.5723 14.5329 30.1641 14.5329 29.6971C14.5329 29.2292 14.4478 28.8207 14.2775 28.4716C14.1072 28.1226 13.8681 27.8518 13.5604 27.6593C13.2526 27.4669 12.8955 27.3706 12.4892 27.3706C12.0987 27.3706 11.7492 27.467 11.4405 27.6596C11.1319 27.8523 10.8909 28.1231 10.7175 28.472C10.5442 28.8208 10.4575 29.2285 10.4575 29.6949C10.4575 30.1623 10.5442 30.5708 10.7175 30.9206C10.8908 31.2703 11.1317 31.5418 11.4403 31.7352C11.7489 31.9286 12.0989 32.0253 12.4904 32.0253ZM17.6385 33V26.3959H18.801L18.8911 27.3095C19.0991 26.9758 19.3772 26.7142 19.7254 26.5245C20.0736 26.3348 20.4596 26.2399 20.8832 26.2399C21.2142 26.2399 21.514 26.2842 21.7827 26.3729C22.0513 26.4615 22.288 26.5957 22.4927 26.7755C22.6975 26.9553 22.8636 27.1809 22.9911 27.4522C23.2228 27.0662 23.5346 26.7677 23.9265 26.5566C24.3183 26.3455 24.7368 26.2399 25.1818 26.2399C25.7085 26.2399 26.1592 26.3437 26.5339 26.5512C26.9087 26.7588 27.1958 27.0707 27.3952 27.4871C27.5947 27.9034 27.6944 28.4215 27.6944 29.0413V33H26.4074V29.1726C26.4074 28.5701 26.2829 28.1149 26.0339 27.8072C25.7849 27.4995 25.4287 27.3457 24.9652 27.3457C24.6502 27.3457 24.3682 27.4269 24.1191 27.5894C23.8699 27.7519 23.6739 27.9874 23.5309 28.2958C23.3879 28.6043 23.3164 28.9814 23.3164 29.4272V33H22.0188V29.1726C22.0188 28.5701 21.8942 28.1149 21.6448 27.8072C21.3955 27.4995 21.038 27.3457 20.5724 27.3457C20.2677 27.3457 19.9912 27.4269 19.7432 27.5894C19.4951 27.7519 19.299 27.9873 19.1548 28.2958C19.0106 28.6043 18.9385 28.9814 18.9385 29.4272V33H17.6385ZM29.4808 33V26.3959H30.7808V33H29.4808ZM30.132 25.1734C29.8834 25.1734 29.6785 25.0947 29.5172 24.9373C29.3558 24.78 29.2752 24.5826 29.2752 24.3452C29.2752 24.1063 29.3558 23.9116 29.5172 23.7614C29.6785 23.6111 29.8834 23.536 30.132 23.536C30.375 23.536 30.579 23.6111 30.7439 23.7614C30.9087 23.9116 30.9912 24.1063 30.9912 24.3452C30.9912 24.5826 30.9087 24.78 30.7439 24.9373C30.579 25.0947 30.375 25.1734 30.132 25.1734ZM32.6535 33V26.3959H33.816L33.8973 27.4988C34.0996 27.1089 34.3906 26.8016 34.7701 26.577C35.1496 26.3523 35.5896 26.2399 36.09 26.2399C36.6068 26.2399 37.0515 26.3428 37.4241 26.5486C37.7968 26.7544 38.0856 27.0644 38.2904 27.4785C38.4952 27.8926 38.5976 28.4111 38.5976 29.0342V33H37.3V29.1655C37.3 28.5677 37.165 28.115 36.895 27.8072C36.625 27.4995 36.2392 27.3457 35.7378 27.3457C35.4022 27.3457 35.0995 27.4261 34.8296 27.5868C34.5596 27.7475 34.3461 27.9804 34.1891 28.2854C34.032 28.5904 33.9535 28.9647 33.9535 29.4084V33H32.6535Z" fill="#4F453C"/>
</svg>
