<svg width="30" height="38" viewBox="0 0 30 38" fill="none" xmlns="http://www.w3.org/2000/svg">
<path d="M4.70996 20V2C4.70996 1.45 4.90579 0.979167 5.29746 0.5875C5.68913 0.195833 6.15996 0 6.70996 0H22.71C23.26 0 23.7308 0.195833 24.1225 0.5875C24.5141 0.979167 24.71 1.45 24.71 2V14C24.71 14.55 24.5141 15.0208 24.1225 15.4125C23.7308 15.8042 23.26 16 22.71 16H8.70996L4.70996 20ZM7.85996 14H22.71V2H6.70996V15.125L7.85996 14ZM6.70996 14V2V14Z" fill="#4F453C"/>
<path d="M4.92529 33.156C4.03905 33.156 3.27346 32.9588 2.62853 32.5645C1.9836 32.1702 1.48673 31.6198 1.13792 30.9135C0.789114 30.2072 0.614711 29.3876 0.614711 28.4548C0.614711 27.5204 0.789114 26.6996 1.13792 25.9925C1.48673 25.2853 1.9836 24.7338 2.62853 24.3379C3.27346 23.942 4.03905 23.744 4.92529 23.744C5.98552 23.744 6.84729 23.9994 7.5106 24.5101C8.17391 25.0208 8.59508 25.742 8.77413 26.6736H7.35079C7.21792 26.1342 6.95045 25.7041 6.5484 25.3833C6.14634 25.0624 5.60385 24.902 4.9209 24.902C4.31389 24.902 3.78663 25.0444 3.33914 25.329C2.89164 25.6137 2.54709 26.0212 2.30549 26.5515C2.06389 27.0818 1.94309 27.7162 1.94309 28.4548C1.94309 29.1917 2.06389 29.825 2.30549 30.3545C2.54709 30.884 2.89164 31.2907 3.33914 31.5746C3.78663 31.8584 4.31389 32.0004 4.9209 32.0004C5.60385 32.0004 6.14602 31.8463 6.54742 31.5381C6.94882 31.2299 7.21646 30.8137 7.35034 30.2893H8.77413C8.59532 31.1853 8.1742 31.8871 7.51078 32.3947C6.84735 32.9022 5.98552 33.156 4.92529 33.156ZM10.2805 33V23.64H11.5805V27.4579C11.799 27.0796 12.0998 26.782 12.4829 26.5652C12.8659 26.3484 13.2913 26.2399 13.7592 26.2399C14.2798 26.2399 14.7259 26.3437 15.0975 26.5512C15.4691 26.7588 15.7534 27.0717 15.9506 27.49C16.1478 27.9083 16.2463 28.433 16.2463 29.064V33H14.9594V29.1953C14.9594 28.5881 14.8277 28.128 14.5643 27.8151C14.3009 27.5021 13.9178 27.3457 13.4147 27.3457C13.0738 27.3457 12.7638 27.4279 12.4849 27.5925C12.206 27.757 11.9855 27.9952 11.8235 28.3072C11.6615 28.6191 11.5805 29.0001 11.5805 29.45V33H10.2805ZM20.1104 33.156C19.5774 33.156 19.1346 33.0636 18.782 32.8788C18.4293 32.694 18.1665 32.4468 17.9934 32.1371C17.8204 31.8275 17.7339 31.4916 17.7339 31.1293C17.7339 30.6976 17.8448 30.3281 18.0666 30.0208C18.2884 29.7135 18.6078 29.4772 19.0249 29.3118C19.4421 29.1464 19.942 29.0637 20.5248 29.0637H22.2135C22.2135 28.6741 22.16 28.3509 22.0531 28.094C21.9462 27.8372 21.7821 27.6441 21.5611 27.5147C21.34 27.3854 21.0578 27.3207 20.7146 27.3207C20.3306 27.3207 20.0012 27.4133 19.7263 27.5985C19.4514 27.7836 19.2817 28.057 19.2172 28.4185H17.9151C17.9657 27.9562 18.1215 27.5638 18.3825 27.2411C18.6435 26.9184 18.9794 26.6709 19.3902 26.4985C19.8011 26.3261 20.2433 26.2399 20.717 26.2399C21.3271 26.2399 21.84 26.3481 22.2558 26.5643C22.6716 26.7805 22.9852 27.0854 23.1965 27.4789C23.4078 27.8724 23.5135 28.3405 23.5135 28.8832V33H22.3807L22.2751 31.888C22.187 32.0661 22.076 32.2323 21.9421 32.3864C21.8081 32.5405 21.6525 32.6747 21.4754 32.7888C21.2982 32.9029 21.0962 32.9926 20.8693 33.058C20.6424 33.1233 20.3894 33.156 20.1104 33.156ZM20.3537 32.0967C20.63 32.0967 20.88 32.0402 21.1038 31.9271C21.3275 31.8141 21.5198 31.6599 21.6805 31.4644C21.8412 31.269 21.9647 31.0481 22.0508 30.8017C22.137 30.5553 22.184 30.2978 22.192 30.0292V29.9804H20.6498C20.2809 29.9804 19.9814 30.0259 19.7513 30.1169C19.5212 30.208 19.3552 30.3338 19.2532 30.4945C19.1513 30.6552 19.1003 30.8391 19.1003 31.0462C19.1003 31.2613 19.1492 31.4476 19.2471 31.6052C19.345 31.7628 19.4882 31.8841 19.6765 31.9692C19.8648 32.0542 20.0905 32.0967 20.3537 32.0967ZM27.7832 33C27.3724 33 27.0149 32.9357 26.7106 32.8072C26.4063 32.6787 26.1723 32.4625 26.0087 32.1587C25.8451 31.8548 25.7632 31.4431 25.7632 30.9236V27.4887H24.6188V26.3959H25.7632L25.9229 24.722H27.0627V26.3959H28.9204V27.4887H27.0632V30.9284C27.0632 31.3006 27.14 31.5539 27.2935 31.6881C27.447 31.8224 27.7158 31.8895 28.0999 31.8895H28.8682V33H27.7832Z" fill="#4F453C"/>
</svg>
