<svg width="47" height="40" viewBox="0 0 47 40" fill="none" xmlns="http://www.w3.org/2000/svg">
<mask id="path-1-inside-1_1_384" fill="white">
<path d="M0 0H46.66V40H0V0Z"/>
</mask>
<path d="M46.66 40V38H0V40V42H46.66V40Z" fill="#624325" mask="url(#path-1-inside-1_1_384)"/>
<path d="M23.33 12C23.0467 12 22.8092 11.9042 22.6175 11.7125C22.4259 11.5208 22.33 11.2833 22.33 11C22.33 10.7167 22.4259 10.4792 22.6175 10.2875C22.8092 10.0958 23.0467 10 23.33 10C23.6134 10 23.8509 10.0958 24.0425 10.2875C24.2342 10.4792 24.33 10.7167 24.33 11C24.33 11.2833 24.2342 11.5208 24.0425 11.7125C23.8509 11.9042 23.6134 12 23.33 12ZM19.33 12C19.0467 12 18.8092 11.9042 18.6175 11.7125C18.4259 11.5208 18.33 11.2833 18.33 11C18.33 10.7167 18.4259 10.4792 18.6175 10.2875C18.8092 10.0958 19.0467 10 19.33 10C19.6134 10 19.8509 10.0958 20.0425 10.2875C20.2342 10.4792 20.33 10.7167 20.33 11C20.33 11.2833 20.2342 11.5208 20.0425 11.7125C19.8509 11.9042 19.6134 12 19.33 12ZM27.33 12C27.0467 12 26.8092 11.9042 26.6175 11.7125C26.4259 11.5208 26.33 11.2833 26.33 11C26.33 10.7167 26.4259 10.4792 26.6175 10.2875C26.8092 10.0958 27.0467 10 27.33 10C27.6134 10 27.8509 10.0958 28.0425 10.2875C28.2342 10.4792 28.33 10.7167 28.33 11C28.33 11.2833 28.2342 11.5208 28.0425 11.7125C27.8509 11.9042 27.6134 12 27.33 12ZM23.33 16C23.0467 16 22.8092 15.9042 22.6175 15.7125C22.4259 15.5208 22.33 15.2833 22.33 15C22.33 14.7167 22.4259 14.4792 22.6175 14.2875C22.8092 14.0958 23.0467 14 23.33 14C23.6134 14 23.8509 14.0958 24.0425 14.2875C24.2342 14.4792 24.33 14.7167 24.33 15C24.33 15.2833 24.2342 15.5208 24.0425 15.7125C23.8509 15.9042 23.6134 16 23.33 16ZM19.33 16C19.0467 16 18.8092 15.9042 18.6175 15.7125C18.4259 15.5208 18.33 15.2833 18.33 15C18.33 14.7167 18.4259 14.4792 18.6175 14.2875C18.8092 14.0958 19.0467 14 19.33 14C19.6134 14 19.8509 14.0958 20.0425 14.2875C20.2342 14.4792 20.33 14.7167 20.33 15C20.33 15.2833 20.2342 15.5208 20.0425 15.7125C19.8509 15.9042 19.6134 16 19.33 16ZM27.33 16C27.0467 16 26.8092 15.9042 26.6175 15.7125C26.4259 15.5208 26.33 15.2833 26.33 15C26.33 14.7167 26.4259 14.4792 26.6175 14.2875C26.8092 14.0958 27.0467 14 27.33 14C27.6134 14 27.8509 14.0958 28.0425 14.2875C28.2342 14.4792 28.33 14.7167 28.33 15C28.33 15.2833 28.2342 15.5208 28.0425 15.7125C27.8509 15.9042 27.6134 16 27.33 16ZM16.33 20C15.78 20 15.3092 19.8042 14.9175 19.4125C14.5259 19.0208 14.33 18.55 14.33 18V4C14.33 3.45 14.5259 2.97917 14.9175 2.5875C15.3092 2.19583 15.78 2 16.33 2H17.33V0H19.33V2H27.33V0H29.33V2H30.33C30.88 2 31.3509 2.19583 31.7425 2.5875C32.1342 2.97917 32.33 3.45 32.33 4V18C32.33 18.55 32.1342 19.0208 31.7425 19.4125C31.3509 19.8042 30.88 20 30.33 20H16.33ZM16.33 18H30.33V8H16.33V18Z" fill="#624325"/>
<path d="M0.364602 33L3.70904 23.9H5.12662L8.46045 33H7.07926L4.41014 25.4658L1.72615 33H0.364602ZM1.87709 30.7461L2.2369 29.7091H6.51808L6.8755 30.7461H1.87709ZM12.3958 36.016C11.7901 36.016 11.2573 35.9402 10.7974 35.7885C10.3376 35.6368 9.98074 35.4058 9.72687 35.0954C9.47301 34.785 9.34607 34.4009 9.34607 33.9432C9.34607 33.7086 9.3988 33.4712 9.50424 33.231C9.60968 32.9908 9.77938 32.7618 10.0133 32.544C10.2473 32.3262 10.5617 32.1331 10.9567 31.9645L11.7 32.5404C11.2548 32.7119 10.9555 32.9129 10.8022 33.1432C10.6489 33.3736 10.5723 33.5974 10.5723 33.8148C10.5723 34.075 10.6504 34.2918 10.8066 34.4652C10.9628 34.6387 11.1783 34.7687 11.4533 34.8553C11.7283 34.9418 12.0408 34.9851 12.391 34.9851C12.7364 34.9851 13.0351 34.9382 13.2871 34.8443C13.539 34.7505 13.7345 34.6177 13.8736 34.4462C14.0126 34.2746 14.0821 34.0717 14.0821 33.8375C14.0821 33.5469 13.9785 33.3089 13.7713 33.1235C13.564 32.9382 13.1621 32.8282 12.5655 32.7935C12.0689 32.7588 11.6473 32.7104 11.3005 32.6481C10.9538 32.5859 10.6621 32.5124 10.4255 32.4276C10.1889 32.3429 9.99017 32.2474 9.82942 32.141C9.66867 32.0346 9.52922 31.9251 9.41107 31.8124V31.5134L10.7212 30.1863L11.7814 30.5434L10.3522 31.8547L10.6263 31.2628C10.7201 31.3289 10.8112 31.3894 10.8998 31.4443C10.9884 31.4992 11.1059 31.5481 11.2525 31.5911C11.399 31.6341 11.5989 31.6741 11.8521 31.7111C12.1054 31.7482 12.4386 31.7835 12.8518 31.8172C13.4427 31.8628 13.92 31.9673 14.2836 32.1307C14.6471 32.2941 14.9117 32.5153 15.0775 32.7945C15.2432 33.0736 15.3261 33.4083 15.3261 33.7985C15.3261 34.1734 15.2229 34.5294 15.0165 34.8663C14.8101 35.2032 14.4911 35.4791 14.0593 35.6938C13.6276 35.9086 13.0731 36.016 12.3958 36.016ZM12.3899 30.9686C11.8405 30.9686 11.3722 30.8639 10.9852 30.6543C10.5981 30.4448 10.3029 30.1612 10.0996 29.8035C9.89629 29.4457 9.79463 29.046 9.79463 28.6043C9.79463 28.1626 9.897 27.7646 10.1017 27.4104C10.3065 27.0562 10.6024 26.7726 10.9894 26.5595C11.3765 26.3465 11.8433 26.2399 12.3899 26.2399C12.9435 26.2399 13.413 26.3465 13.7983 26.5595C14.1836 26.7726 14.4774 27.0562 14.6796 27.4104C14.8818 27.7646 14.9829 28.1626 14.9829 28.6043C14.9829 29.046 14.8818 29.4457 14.6796 29.8035C14.4774 30.1612 14.1836 30.4448 13.7983 30.6543C13.413 30.8639 12.9435 30.9686 12.3899 30.9686ZM12.3899 29.933C12.8189 29.933 13.1589 29.8207 13.4099 29.5962C13.6609 29.3716 13.7864 29.0418 13.7864 28.6067C13.7864 28.1752 13.6609 27.848 13.4099 27.6252C13.1589 27.4024 12.8189 27.291 12.3899 27.291C11.9692 27.291 11.6284 27.4024 11.3675 27.6252C11.1066 27.848 10.9762 28.1752 10.9762 28.6067C10.9762 29.0418 11.1052 29.3716 11.3633 29.5962C11.6213 29.8207 11.9635 29.933 12.3899 29.933ZM13.4763 27.417L13.1633 26.3959H15.8485V27.2843L13.4763 27.417ZM19.8513 33.156C19.2251 33.156 18.6708 33.0128 18.1883 32.7264C17.7059 32.44 17.3279 32.0385 17.0544 31.5217C16.7809 31.005 16.6441 30.4034 16.6441 29.7171C16.6441 29.0217 16.7794 28.414 17.05 27.8938C17.3206 27.3736 17.6985 26.9679 18.1837 26.6767C18.6688 26.3855 19.231 26.2399 19.8701 26.2399C20.517 26.2399 21.0697 26.3831 21.5282 26.6695C21.9867 26.9559 22.3387 27.3377 22.5842 27.8148C22.8296 28.292 22.9524 28.8201 22.9524 29.3993C22.9524 29.486 22.952 29.5782 22.9512 29.676C22.9504 29.7738 22.9448 29.8826 22.9346 30.0023H17.5994V29.0856H21.6596C21.6377 28.5283 21.4576 28.0944 21.1194 27.784C20.7812 27.4736 20.3593 27.3183 19.8537 27.3183C19.5068 27.3183 19.1864 27.3986 18.8924 27.5593C18.5985 27.7199 18.3626 27.9567 18.1848 28.2697C18.007 28.5827 17.9181 28.9759 17.9181 29.4492V29.818C17.9181 30.3066 18.0061 30.7189 18.1822 31.055C18.3583 31.3911 18.5924 31.6447 18.8844 31.816C19.1765 31.9872 19.4972 32.0728 19.8465 32.0728C20.2696 32.0728 20.6138 31.9837 20.879 31.8054C21.1442 31.6271 21.3404 31.3829 21.4676 31.0728H22.7689C22.6559 31.4687 22.466 31.8237 22.1993 32.138C21.9326 32.4523 21.6021 32.7005 21.2078 32.8827C20.8136 33.0649 20.3614 33.156 19.8513 33.156ZM24.4115 33V26.3959H25.574L25.6553 27.4988C25.8576 27.1089 26.1486 26.8016 26.5281 26.577C26.9076 26.3523 27.3476 26.2399 27.848 26.2399C28.3648 26.2399 28.8095 26.3428 29.1821 26.5486C29.5548 26.7544 29.8436 27.0644 30.0484 27.4785C30.2532 27.8926 30.3556 28.4111 30.3556 29.0342V33H29.058V29.1655C29.058 28.5677 28.923 28.115 28.653 27.8072C28.383 27.4995 27.9972 27.3457 27.4958 27.3457C27.1602 27.3457 26.8575 27.4261 26.5876 27.5868C26.3176 27.7475 26.1041 27.9804 25.9471 28.2854C25.79 28.5904 25.7115 28.9647 25.7115 29.4084V33H24.4115ZM34.9381 33.156C34.3214 33.156 33.7765 33.006 33.3032 32.706C32.8299 32.406 32.4614 31.9948 32.1977 31.4724C31.934 30.9501 31.8021 30.3575 31.8021 29.6945C31.8021 29.0254 31.9346 28.4311 32.1996 27.9117C32.4646 27.3924 32.8363 26.9839 33.3147 26.6863C33.7931 26.3887 34.3442 26.2399 34.9681 26.2399C35.4786 26.2399 35.9266 26.3411 36.3121 26.5434C36.6975 26.7457 36.9991 27.0304 37.2167 27.3975V23.64H38.5166V33H37.3493L37.2209 31.9781C37.0867 32.1826 36.9157 32.3747 36.7079 32.5545C36.5001 32.7342 36.2506 32.8794 35.9592 32.9901C35.6678 33.1007 35.3274 33.156 34.9381 33.156ZM35.1624 32.0253C35.5684 32.0253 35.9252 31.9287 36.2327 31.7354C36.5403 31.5421 36.7792 31.2709 36.9495 30.9216C37.1198 30.5723 37.2049 30.1641 37.2049 29.6971C37.2049 29.2292 37.1198 28.8207 36.9495 28.4716C36.7792 28.1226 36.5401 27.8518 36.2324 27.6593C35.9246 27.4669 35.5675 27.3706 35.1612 27.3706C34.7707 27.3706 34.4212 27.467 34.1125 27.6596C33.8039 27.8523 33.5629 28.1231 33.3895 28.472C33.2162 28.8208 33.1295 29.2285 33.1295 29.6949C33.1295 30.1623 33.2162 30.5708 33.3895 30.9206C33.5628 31.2703 33.8037 31.5418 34.1123 31.7352C34.4209 31.9286 34.7709 32.0253 35.1624 32.0253ZM42.4704 33.156C41.9374 33.156 41.4946 33.0636 41.142 32.8788C40.7893 32.694 40.5265 32.4468 40.3534 32.1371C40.1804 31.8275 40.0939 31.4916 40.0939 31.1293C40.0939 30.6976 40.2048 30.3281 40.4266 30.0208C40.6484 29.7135 40.9678 29.4772 41.3849 29.3118C41.8021 29.1464 42.302 29.0637 42.8848 29.0637H44.5735C44.5735 28.6741 44.52 28.3509 44.4131 28.094C44.3062 27.8372 44.1421 27.6441 43.9211 27.5147C43.7 27.3854 43.4178 27.3207 43.0746 27.3207C42.6906 27.3207 42.3612 27.4133 42.0863 27.5985C41.8114 27.7836 41.6417 28.057 41.5772 28.4185H40.2751C40.3257 27.9562 40.4815 27.5638 40.7425 27.2411C41.0035 26.9184 41.3394 26.6709 41.7502 26.4985C42.1611 26.3261 42.6033 26.2399 43.077 26.2399C43.6871 26.2399 44.2 26.3481 44.6158 26.5643C45.0316 26.7805 45.3452 27.0854 45.5565 27.4789C45.7678 27.8724 45.8735 28.3405 45.8735 28.8832V33H44.7407L44.6351 31.888C44.547 32.0661 44.436 32.2323 44.3021 32.3864C44.1681 32.5405 44.0125 32.6747 43.8354 32.7888C43.6582 32.9029 43.4562 32.9926 43.2293 33.058C43.0024 33.1233 42.7494 33.156 42.4704 33.156ZM42.7137 32.0967C42.99 32.0967 43.24 32.0402 43.4638 31.9271C43.6875 31.8141 43.8798 31.6599 44.0405 31.4644C44.2012 31.269 44.3247 31.0481 44.4108 30.8017C44.497 30.5553 44.544 30.2978 44.552 30.0292V29.9804H43.0098C42.6409 29.9804 42.3414 30.0259 42.1113 30.1169C41.8812 30.208 41.7152 30.3338 41.6132 30.4945C41.5113 30.6552 41.4603 30.8391 41.4603 31.0462C41.4603 31.2613 41.5092 31.4476 41.6071 31.6052C41.7051 31.7628 41.8482 31.8841 42.0365 31.9692C42.2248 32.0542 42.4505 32.0967 42.7137 32.0967Z" fill="#624325"/>
</svg>
