<svg width="31" height="36" viewBox="0 0 31 36" fill="none" xmlns="http://www.w3.org/2000/svg">
<mask id="path-1-inside-1_1_102" fill="white">
<path d="M0 0H30.45V36H0V0Z"/>
</mask>
<path d="M30.45 36V34H0V36V38H30.45V36Z" fill="#624325" mask="url(#path-1-inside-1_1_102)"/>
<path d="M15.225 8C14.125 8 13.1833 7.60833 12.4 6.825C11.6167 6.04167 11.225 5.1 11.225 4C11.225 2.9 11.6167 1.95833 12.4 1.175C13.1833 0.391667 14.125 0 15.225 0C16.325 0 17.2667 0.391667 18.05 1.175C18.8333 1.95833 19.225 2.9 19.225 4C19.225 5.1 18.8333 6.04167 18.05 6.825C17.2667 7.60833 16.325 8 15.225 8V8M7.22501 16V13.2C7.22501 12.6333 7.37084 12.1125 7.66251 11.6375C7.95417 11.1625 8.34167 10.8 8.82501 10.55C9.85834 10.0333 10.9083 9.64583 11.975 9.3875C13.0417 9.12917 14.125 9 15.225 9C16.325 9 17.4083 9.12917 18.475 9.3875C19.5417 9.64583 20.5917 10.0333 21.625 10.55C22.1083 10.8 22.4958 11.1625 22.7875 11.6375C23.0792 12.1125 23.225 12.6333 23.225 13.2V16H7.22501V16M9.22501 14H21.225V13.2C21.225 13.0167 21.1792 12.85 21.0875 12.7C20.9958 12.55 20.875 12.4333 20.725 12.35C19.825 11.9 18.9167 11.5625 18 11.3375C17.0833 11.1125 16.1583 11 15.225 11C14.2917 11 13.3667 11.1125 12.45 11.3375C11.5333 11.5625 10.625 11.9 9.72501 12.35C9.57501 12.4333 9.45417 12.55 9.36251 12.7C9.27084 12.85 9.22501 13.0167 9.22501 13.2V14V14M15.225 6C15.775 6 16.2458 5.80417 16.6375 5.4125C17.0292 5.02083 17.225 4.55 17.225 4C17.225 3.45 17.0292 2.97917 16.6375 2.5875C16.2458 2.19583 15.775 2 15.225 2C14.675 2 14.2042 2.19583 13.8125 2.5875C13.4208 2.97917 13.225 3.45 13.225 4C13.225 4.55 13.4208 5.02083 13.8125 5.4125C14.2042 5.80417 14.675 6 15.225 6V6M15.225 4V4V4V4V4V4V4V4V4V4M15.225 14V14V14V14V14V14V14V14V14V14V14V14V14" fill="#624325"/>
<path d="M0.955614 29V19.9H4.05587C4.7813 19.9 5.37872 20.0209 5.84814 20.2627C6.31756 20.5045 6.66594 20.8311 6.89329 21.2425C7.12063 21.6539 7.23431 22.12 7.23431 22.6407C7.23431 23.1435 7.1228 23.6014 6.8998 24.0147C6.6768 24.4279 6.33131 24.7583 5.86334 25.0059C5.39536 25.2535 4.79288 25.3772 4.05587 25.3772H2.2556V29H0.955614ZM2.2556 24.2988H4.00782C4.69222 24.2988 5.17967 24.1482 5.47017 23.847C5.76067 23.5458 5.90593 23.1436 5.90593 22.6406C5.90593 22.1153 5.76067 21.706 5.47017 21.4126C5.17967 21.1192 4.69222 20.9726 4.00782 20.9726H2.2556V24.2988ZM11.1803 29.156C10.5541 29.156 9.99975 29.0128 9.51731 28.7264C9.03487 28.44 8.65689 28.0385 8.38337 27.5217C8.10986 27.005 7.9731 26.4034 7.9731 25.7171C7.9731 25.0217 8.1084 24.414 8.379 23.8938C8.64959 23.3736 9.02748 22.9679 9.51267 22.6767C9.99785 22.3855 10.56 22.2399 11.1991 22.2399C11.846 22.2399 12.3987 22.3831 12.8572 22.6695C13.3157 22.9559 13.6677 23.3377 13.9132 23.8148C14.1586 24.292 14.2814 24.8201 14.2814 25.3993C14.2814 25.486 14.281 25.5782 14.2802 25.676C14.2794 25.7738 14.2738 25.8826 14.2636 26.0023H8.92837V25.0856H12.9886C12.9667 24.5283 12.7866 24.0944 12.4484 23.784C12.1102 23.4736 11.6883 23.3183 11.1827 23.3183C10.8358 23.3183 10.5154 23.3986 10.2214 23.5593C9.92748 23.7199 9.6916 23.9567 9.5138 24.2697C9.33599 24.5827 9.24709 24.9759 9.24709 25.4492V25.818C9.24709 26.3066 9.33514 26.7189 9.51124 27.055C9.68734 27.3911 9.92141 27.6447 10.2134 27.816C10.5055 27.9872 10.8262 28.0728 11.1755 28.0728C11.5986 28.0728 11.9428 27.9837 12.208 27.8054C12.4732 27.6271 12.6694 27.3829 12.7966 27.0728H14.0979C13.9849 27.4687 13.795 27.8237 13.5283 28.138C13.2616 28.4523 12.9311 28.7005 12.5368 28.8827C12.1426 29.0649 11.6904 29.156 11.1803 29.156ZM15.7405 29V22.3959H16.9078L17.0175 23.6291C17.1695 23.3323 17.3639 23.081 17.6007 22.8752C17.8376 22.6695 18.1193 22.5121 18.4457 22.4033C18.7722 22.2944 19.1391 22.2399 19.5464 22.2399V23.6063H19.0277C18.7588 23.6063 18.5041 23.6401 18.2637 23.7077C18.0233 23.7754 17.8108 23.8856 17.6264 24.0385C17.4419 24.1914 17.2981 24.4001 17.1951 24.6645C17.092 24.9289 17.0405 25.259 17.0405 25.6547V29H15.7405ZM21.113 29V23.4887H20.1379V22.3959H21.113V21.5679C21.113 21.112 21.1895 20.7428 21.3425 20.4601C21.4956 20.1775 21.7189 19.9701 22.0126 19.8381C22.3064 19.706 22.6621 19.64 23.0799 19.64H23.7514V20.7505H23.28C22.9737 20.7505 22.7526 20.8123 22.6168 20.936C22.4809 21.0596 22.413 21.2757 22.413 21.5843V22.3959H26.3652V29H25.0652V23.4887H22.413V29H21.113ZM25.7259 21.2473C25.4852 21.2473 25.2823 21.1687 25.1175 21.0114C24.9526 20.8542 24.8702 20.6564 24.8702 20.4181C24.8702 20.1798 24.9526 19.9856 25.1175 19.8353C25.2823 19.685 25.4852 19.6099 25.7259 19.6099C25.9768 19.6099 26.1828 19.685 26.3442 19.8353C26.5055 19.9856 26.5862 20.1798 26.5862 20.4181C26.5862 20.6564 26.5055 20.8542 26.3442 21.0114C26.1828 21.1687 25.9768 21.2473 25.7259 21.2473ZM28.2465 29V19.64H29.5465V29H28.2465Z" fill="#624325"/>
</svg>
