<svg width="30" height="40" viewBox="0 0 30 40" fill="none" xmlns="http://www.w3.org/2000/svg">
<mask id="path-1-inside-1_1_220" fill="white">
<path d="M0 0H29.42V40H0V0Z"/>
</mask>
<path d="M29.42 40V38H0V40V42H29.42V40Z" fill="#624325" mask="url(#path-1-inside-1_1_220)"/>
<path d="M4.71002 20V2C4.71002 1.45 4.90586 0.979167 5.29752 0.5875C5.68919 0.195833 6.16002 0 6.71002 0H22.71C23.26 0 23.7309 0.195833 24.1225 0.5875C24.5142 0.979167 24.71 1.45 24.71 2V14C24.71 14.55 24.5142 15.0208 24.1225 15.4125C23.7309 15.8042 23.26 16 22.71 16H8.71002L4.71002 20Z" fill="#624325"/>
<path d="M4.89329 33.156C4.00705 33.156 3.24146 32.9588 2.59653 32.5645C1.9516 32.1702 1.45473 31.6198 1.10592 30.9135C0.757114 30.2072 0.582711 29.3876 0.582711 28.4548C0.582711 27.5204 0.757114 26.6996 1.10592 25.9925C1.45473 25.2853 1.9516 24.7338 2.59653 24.3379C3.24146 23.942 4.00705 23.744 4.89329 23.744C5.95352 23.744 6.81529 23.9994 7.4786 24.5101C8.14191 25.0208 8.56308 25.742 8.74213 26.6736H7.31879C7.18592 26.1342 6.91845 25.7041 6.5164 25.3833C6.11434 25.0624 5.57185 24.902 4.8889 24.902C4.28189 24.902 3.75463 25.0444 3.30714 25.329C2.85964 25.6137 2.51509 26.0212 2.27349 26.5515C2.03189 27.0818 1.91109 27.7162 1.91109 28.4548C1.91109 29.1917 2.03189 29.825 2.27349 30.3545C2.51509 30.884 2.85964 31.2907 3.30714 31.5746C3.75463 31.8584 4.28189 32.0004 4.8889 32.0004C5.57185 32.0004 6.11402 31.8463 6.51542 31.5381C6.91682 31.2299 7.18446 30.8137 7.31834 30.2893H8.74213C8.56332 31.1853 8.1422 31.8871 7.47878 32.3947C6.81535 32.9022 5.95352 33.156 4.89329 33.156ZM10.2485 33V23.64H11.5485V27.4579C11.767 27.0796 12.0678 26.782 12.4509 26.5652C12.8339 26.3484 13.2593 26.2399 13.7272 26.2399C14.2478 26.2399 14.6939 26.3437 15.0655 26.5512C15.4371 26.7588 15.7214 27.0717 15.9186 27.49C16.1158 27.9083 16.2143 28.433 16.2143 29.064V33H14.9274V29.1953C14.9274 28.5881 14.7957 28.128 14.5323 27.8151C14.2689 27.5021 13.8858 27.3457 13.3827 27.3457C13.0418 27.3457 12.7318 27.4279 12.4529 27.5925C12.174 27.757 11.9535 27.9952 11.7915 28.3072C11.6295 28.6191 11.5485 29.0001 11.5485 29.45V33H10.2485ZM20.0784 33.156C19.5454 33.156 19.1026 33.0636 18.75 32.8788C18.3973 32.694 18.1345 32.4468 17.9614 32.1371C17.7884 31.8275 17.7019 31.4916 17.7019 31.1293C17.7019 30.6976 17.8128 30.3281 18.0346 30.0208C18.2564 29.7135 18.5758 29.4772 18.9929 29.3118C19.4101 29.1464 19.91 29.0637 20.4928 29.0637H22.1815C22.1815 28.6741 22.128 28.3509 22.0211 28.094C21.9142 27.8372 21.7501 27.6441 21.5291 27.5147C21.308 27.3854 21.0258 27.3207 20.6826 27.3207C20.2986 27.3207 19.9692 27.4133 19.6943 27.5985C19.4194 27.7836 19.2497 28.057 19.1852 28.4185H17.8831C17.9337 27.9562 18.0895 27.5638 18.3505 27.2411C18.6115 26.9184 18.9474 26.6709 19.3582 26.4985C19.7691 26.3261 20.2113 26.2399 20.685 26.2399C21.2951 26.2399 21.808 26.3481 22.2238 26.5643C22.6396 26.7805 22.9532 27.0854 23.1645 27.4789C23.3758 27.8724 23.4815 28.3405 23.4815 28.8832V33H22.3487L22.2431 31.888C22.155 32.0661 22.044 32.2323 21.9101 32.3864C21.7761 32.5405 21.6205 32.6747 21.4434 32.7888C21.2662 32.9029 21.0642 32.9926 20.8373 33.058C20.6104 33.1233 20.3574 33.156 20.0784 33.156ZM20.3217 32.0967C20.598 32.0967 20.848 32.0402 21.0718 31.9271C21.2955 31.8141 21.4878 31.6599 21.6485 31.4644C21.8092 31.269 21.9327 31.0481 22.0188 30.8017C22.105 30.5553 22.152 30.2978 22.16 30.0292V29.9804H20.6178C20.2489 29.9804 19.9494 30.0259 19.7193 30.1169C19.4892 30.208 19.3232 30.3338 19.2212 30.4945C19.1193 30.6552 19.0683 30.8391 19.0683 31.0462C19.0683 31.2613 19.1172 31.4476 19.2151 31.6052C19.313 31.7628 19.4562 31.8841 19.6445 31.9692C19.8328 32.0542 20.0585 32.0967 20.3217 32.0967ZM27.7512 33C27.3404 33 26.9829 32.9357 26.6786 32.8072C26.3743 32.6787 26.1403 32.4625 25.9767 32.1587C25.8131 31.8548 25.7312 31.4431 25.7312 30.9236V27.4887H24.5868V26.3959H25.7312L25.8909 24.722H27.0307V26.3959H28.8884V27.4887H27.0312V30.9284C27.0312 31.3006 27.108 31.5539 27.2615 31.6881C27.415 31.8224 27.6838 31.8895 28.0679 31.8895H28.8362V33H27.7512Z" fill="#624325"/>
</svg>
