<svg width="55" height="46" viewBox="0 0 55 46" fill="none" xmlns="http://www.w3.org/2000/svg">
<path d="M20.345 24C19.795 24 19.3241 23.8042 18.9325 23.4125C18.5408 23.0208 18.345 22.55 18.345 22V8C18.345 7.45 18.5408 6.97917 18.9325 6.5875C19.3241 6.19583 19.795 6 20.345 6H21.345V4H23.345V6H31.345V4H33.345V6H34.345C34.895 6 35.3658 6.19583 35.7575 6.5875C36.1491 6.97917 36.345 7.45 36.345 8V22C36.345 22.55 36.1491 23.0208 35.7575 23.4125C35.3658 23.8042 34.895 24 34.345 24H20.345ZM20.345 22H34.345V12H20.345V22ZM20.345 10H34.345V8H20.345V10ZM20.345 10V8V10ZM27.345 16C27.0616 16 26.8241 15.9042 26.6325 15.7125C26.4408 15.5208 26.345 15.2833 26.345 15C26.345 14.7167 26.4408 14.4792 26.6325 14.2875C26.8241 14.0958 27.0616 14 27.345 14C27.6283 14 27.8658 14.0958 28.0575 14.2875C28.2491 14.4792 28.345 14.7167 28.345 15C28.345 15.2833 28.2491 15.5208 28.0575 15.7125C27.8658 15.9042 27.6283 16 27.345 16ZM23.345 16C23.0616 16 22.8241 15.9042 22.6325 15.7125C22.4408 15.5208 22.345 15.2833 22.345 15C22.345 14.7167 22.4408 14.4792 22.6325 14.2875C22.8241 14.0958 23.0616 14 23.345 14C23.6283 14 23.8658 14.0958 24.0575 14.2875C24.2491 14.4792 24.345 14.7167 24.345 15C24.345 15.2833 24.2491 15.5208 24.0575 15.7125C23.8658 15.9042 23.6283 16 23.345 16ZM31.345 16C31.0616 16 30.8241 15.9042 30.6325 15.7125C30.4408 15.5208 30.345 15.2833 30.345 15C30.345 14.7167 30.4408 14.4792 30.6325 14.2875C30.8241 14.0958 31.0616 14 31.345 14C31.6283 14 31.8658 14.0958 32.0575 14.2875C32.2491 14.4792 32.345 14.7167 32.345 15C32.345 15.2833 32.2491 15.5208 32.0575 15.7125C31.8658 15.9042 31.6283 16 31.345 16ZM27.345 20C27.0616 20 26.8241 19.9042 26.6325 19.7125C26.4408 19.5208 26.345 19.2833 26.345 19C26.345 18.7167 26.4408 18.4792 26.6325 18.2875C26.8241 18.0958 27.0616 18 27.345 18C27.6283 18 27.8658 18.0958 28.0575 18.2875C28.2491 18.4792 28.345 18.7167 28.345 19C28.345 19.2833 28.2491 19.5208 28.0575 19.7125C27.8658 19.9042 27.6283 20 27.345 20ZM23.345 20C23.0616 20 22.8241 19.9042 22.6325 19.7125C22.4408 19.5208 22.345 19.2833 22.345 19C22.345 18.7167 22.4408 18.4792 22.6325 18.2875C22.8241 18.0958 23.0616 18 23.345 18C23.6283 18 23.8658 18.0958 24.0575 18.2875C24.2491 18.4792 24.345 18.7167 24.345 19C24.345 19.2833 24.2491 19.5208 24.0575 19.7125C23.8658 19.9042 23.6283 20 23.345 20ZM31.345 20C31.0616 20 30.8241 19.9042 30.6325 19.7125C30.4408 19.5208 30.345 19.2833 30.345 19C30.345 18.7167 30.4408 18.4792 30.6325 18.2875C30.8241 18.0958 31.0616 18 31.345 18C31.6283 18 31.8658 18.0958 32.0575 18.2875C32.2491 18.4792 32.345 18.7167 32.345 19C32.345 19.2833 32.2491 19.5208 32.0575 19.7125C31.8658 19.9042 31.6283 20 31.345 20Z" fill="#4F453C"/>
<path d="M4.3646 37L7.70904 27.9H9.12662L12.4605 37H11.0793L8.41014 29.4658L5.72615 37H4.3646ZM5.87709 34.7461L6.2369 33.7091H10.5181L10.8755 34.7461H5.87709ZM16.3958 40.016C15.7901 40.016 15.2573 39.9402 14.7974 39.7885C14.3376 39.6368 13.9807 39.4058 13.7269 39.0954C13.473 38.785 13.3461 38.4009 13.3461 37.9432C13.3461 37.7086 13.3988 37.4712 13.5042 37.231C13.6097 36.9908 13.7794 36.7618 14.0133 36.544C14.2473 36.3262 14.5617 36.1331 14.9567 35.9645L15.7 36.5404C15.2548 36.7119 14.9555 36.9129 14.8022 37.1432C14.6489 37.3736 14.5723 37.5974 14.5723 37.8148C14.5723 38.075 14.6504 38.2918 14.8066 38.4652C14.9628 38.6387 15.1783 38.7687 15.4533 38.8553C15.7283 38.9418 16.0408 38.9851 16.391 38.9851C16.7364 38.9851 17.0351 38.9382 17.2871 38.8443C17.539 38.7505 17.7345 38.6177 17.8736 38.4462C18.0126 38.2746 18.0821 38.0717 18.0821 37.8375C18.0821 37.5469 17.9785 37.3089 17.7713 37.1235C17.564 36.9382 17.1621 36.8282 16.5655 36.7935C16.0689 36.7588 15.6473 36.7104 15.3005 36.6481C14.9538 36.5859 14.6621 36.5124 14.4255 36.4276C14.1889 36.3429 13.9902 36.2474 13.8294 36.141C13.6687 36.0346 13.5292 35.9251 13.4111 35.8124V35.5134L14.7212 34.1863L15.7814 34.5434L14.3522 35.8547L14.6263 35.2628C14.7201 35.3289 14.8112 35.3894 14.8998 35.4443C14.9884 35.4992 15.1059 35.5481 15.2525 35.5911C15.399 35.6341 15.5989 35.6741 15.8521 35.7111C16.1054 35.7482 16.4386 35.7835 16.8518 35.8172C17.4427 35.8628 17.92 35.9673 18.2836 36.1307C18.6471 36.2941 18.9117 36.5153 19.0775 36.7945C19.2432 37.0736 19.3261 37.4083 19.3261 37.7985C19.3261 38.1734 19.2229 38.5294 19.0165 38.8663C18.8101 39.2032 18.4911 39.4791 18.0593 39.6938C17.6276 39.9086 17.0731 40.016 16.3958 40.016ZM16.3899 34.9686C15.8405 34.9686 15.3722 34.8639 14.9852 34.6543C14.5981 34.4448 14.3029 34.1612 14.0996 33.8035C13.8963 33.4457 13.7946 33.046 13.7946 32.6043C13.7946 32.1626 13.897 31.7646 14.1017 31.4104C14.3065 31.0562 14.6024 30.7726 14.9894 30.5595C15.3765 30.3465 15.8433 30.2399 16.3899 30.2399C16.9435 30.2399 17.413 30.3465 17.7983 30.5595C18.1836 30.7726 18.4774 31.0562 18.6796 31.4104C18.8818 31.7646 18.9829 32.1626 18.9829 32.6043C18.9829 33.046 18.8818 33.4457 18.6796 33.8035C18.4774 34.1612 18.1836 34.4448 17.7983 34.6543C17.413 34.8639 16.9435 34.9686 16.3899 34.9686ZM16.3899 33.933C16.8189 33.933 17.1589 33.8207 17.4099 33.5962C17.6609 33.3716 17.7864 33.0418 17.7864 32.6067C17.7864 32.1752 17.6609 31.848 17.4099 31.6252C17.1589 31.4024 16.8189 31.291 16.3899 31.291C15.9692 31.291 15.6284 31.4024 15.3675 31.6252C15.1066 31.848 14.9762 32.1752 14.9762 32.6067C14.9762 33.0418 15.1052 33.3716 15.3633 33.5962C15.6213 33.8207 15.9635 33.933 16.3899 33.933ZM17.4763 31.417L17.1633 30.3959H19.8485V31.2843L17.4763 31.417ZM23.8513 37.156C23.2251 37.156 22.6708 37.0128 22.1883 36.7264C21.7059 36.44 21.3279 36.0385 21.0544 35.5217C20.7809 35.005 20.6441 34.4034 20.6441 33.7171C20.6441 33.0217 20.7794 32.414 21.05 31.8938C21.3206 31.3736 21.6985 30.9679 22.1837 30.6767C22.6688 30.3855 23.231 30.2399 23.8701 30.2399C24.517 30.2399 25.0697 30.3831 25.5282 30.6695C25.9867 30.9559 26.3387 31.3377 26.5842 31.8148C26.8296 32.292 26.9524 32.8201 26.9524 33.3993C26.9524 33.486 26.952 33.5782 26.9512 33.676C26.9504 33.7738 26.9448 33.8826 26.9346 34.0023H21.5994V33.0856H25.6596C25.6377 32.5283 25.4576 32.0944 25.1194 31.784C24.7812 31.4736 24.3593 31.3183 23.8537 31.3183C23.5068 31.3183 23.1864 31.3986 22.8924 31.5593C22.5985 31.7199 22.3626 31.9567 22.1848 32.2697C22.007 32.5827 21.9181 32.9759 21.9181 33.4492V33.818C21.9181 34.3066 22.0061 34.7189 22.1822 35.055C22.3583 35.3911 22.5924 35.6447 22.8844 35.816C23.1765 35.9872 23.4972 36.0728 23.8465 36.0728C24.2696 36.0728 24.6138 35.9837 24.879 35.8054C25.1442 35.6271 25.3404 35.3829 25.4676 35.0728H26.7689C26.6559 35.4687 26.466 35.8237 26.1993 36.138C25.9326 36.4523 25.6021 36.7005 25.2078 36.8827C24.8136 37.0649 24.3614 37.156 23.8513 37.156ZM28.4115 37V30.3959H29.574L29.6553 31.4988C29.8576 31.1089 30.1486 30.8016 30.5281 30.577C30.9076 30.3523 31.3476 30.2399 31.848 30.2399C32.3648 30.2399 32.8095 30.3428 33.1821 30.5486C33.5548 30.7544 33.8436 31.0644 34.0484 31.4785C34.2532 31.8926 34.3556 32.4111 34.3556 33.0342V37H33.058V33.1655C33.058 32.5677 32.923 32.115 32.653 31.8072C32.383 31.4995 31.9972 31.3457 31.4958 31.3457C31.1602 31.3457 30.8575 31.4261 30.5876 31.5868C30.3176 31.7475 30.1041 31.9804 29.9471 32.2854C29.79 32.5904 29.7115 32.9647 29.7115 33.4084V37H28.4115ZM38.9381 37.156C38.3214 37.156 37.7765 37.006 37.3032 36.706C36.8299 36.406 36.4614 35.9948 36.1977 35.4724C35.934 34.9501 35.8021 34.3575 35.8021 33.6945C35.8021 33.0254 35.9346 32.4311 36.1996 31.9117C36.4646 31.3924 36.8363 30.9839 37.3147 30.6863C37.7931 30.3887 38.3442 30.2399 38.9681 30.2399C39.4786 30.2399 39.9266 30.3411 40.3121 30.5434C40.6975 30.7457 40.9991 31.0304 41.2167 31.3975V27.64H42.5166V37H41.3493L41.2209 35.9781C41.0867 36.1826 40.9157 36.3747 40.7079 36.5545C40.5001 36.7342 40.2506 36.8794 39.9592 36.9901C39.6678 37.1007 39.3274 37.156 38.9381 37.156ZM39.1624 36.0253C39.5684 36.0253 39.9252 35.9287 40.2327 35.7354C40.5403 35.5421 40.7792 35.2709 40.9495 34.9216C41.1198 34.5723 41.2049 34.1641 41.2049 33.6971C41.2049 33.2292 41.1198 32.8207 40.9495 32.4716C40.7792 32.1226 40.5401 31.8518 40.2324 31.6593C39.9246 31.4669 39.5675 31.3706 39.1612 31.3706C38.7707 31.3706 38.4212 31.467 38.1125 31.6596C37.8039 31.8523 37.5629 32.1231 37.3895 32.472C37.2162 32.8208 37.1295 33.2285 37.1295 33.6949C37.1295 34.1623 37.2162 34.5708 37.3895 34.9206C37.5628 35.2703 37.8037 35.5418 38.1123 35.7352C38.4209 35.9286 38.7709 36.0253 39.1624 36.0253ZM46.4704 37.156C45.9374 37.156 45.4946 37.0636 45.142 36.8788C44.7893 36.694 44.5265 36.4468 44.3534 36.1371C44.1804 35.8275 44.0939 35.4916 44.0939 35.1293C44.0939 34.6976 44.2048 34.3281 44.4266 34.0208C44.6484 33.7135 44.9678 33.4772 45.3849 33.3118C45.8021 33.1464 46.302 33.0637 46.8848 33.0637H48.5735C48.5735 32.6741 48.52 32.3509 48.4131 32.094C48.3062 31.8372 48.1421 31.6441 47.9211 31.5147C47.7 31.3854 47.4178 31.3207 47.0746 31.3207C46.6906 31.3207 46.3612 31.4133 46.0863 31.5985C45.8114 31.7836 45.6417 32.057 45.5772 32.4185H44.2751C44.3257 31.9562 44.4815 31.5638 44.7425 31.2411C45.0035 30.9184 45.3394 30.6709 45.7502 30.4985C46.1611 30.3261 46.6033 30.2399 47.077 30.2399C47.6871 30.2399 48.2 30.3481 48.6158 30.5643C49.0316 30.7805 49.3452 31.0854 49.5565 31.4789C49.7678 31.8724 49.8735 32.3405 49.8735 32.8832V37H48.7407L48.6351 35.888C48.547 36.0661 48.436 36.2323 48.3021 36.3864C48.1681 36.5405 48.0125 36.6747 47.8354 36.7888C47.6582 36.9029 47.4562 36.9926 47.2293 37.058C47.0024 37.1233 46.7494 37.156 46.4704 37.156ZM46.7137 36.0967C46.99 36.0967 47.24 36.0402 47.4638 35.9271C47.6875 35.8141 47.8798 35.6599 48.0405 35.4644C48.2012 35.269 48.3247 35.0481 48.4108 34.8017C48.497 34.5553 48.544 34.2978 48.552 34.0292V33.9804H47.0098C46.6409 33.9804 46.3414 34.0259 46.1113 34.1169C45.8812 34.208 45.7152 34.3338 45.6132 34.4945C45.5113 34.6552 45.4603 34.8391 45.4603 35.0462C45.4603 35.2613 45.5092 35.4476 45.6071 35.6052C45.7051 35.7628 45.8482 35.8841 46.0365 35.9692C46.2248 36.0542 46.4505 36.0967 46.7137 36.0967Z" fill="#4F453C"/>
</svg>
