<svg width="41" height="42" viewBox="0 0 41 42" fill="none" xmlns="http://www.w3.org/2000/svg">
<mask id="path-1-inside-1_1_545" fill="white">
<path d="M0 0H40.48V42H0V0Z"/>
</mask>
<path d="M40.48 42V40H0V42V44H40.48V42Z" fill="#624325" mask="url(#path-1-inside-1_1_545)"/>
<path d="M21.24 6V0H29.24V6H21.24ZM11.24 10V0H19.24V10H11.24ZM21.24 18V8H29.24V18H21.24ZM11.24 18V12H19.24V18H11.24Z" fill="#624325"/>
<path d="M3.07679 31V22.9596H0.37832V21.9H7.0731V22.9596H4.37463V31H3.07679ZM9.48937 31.156C8.95643 31.156 8.51362 31.0636 8.16096 30.8788C7.8083 30.694 7.54546 30.4468 7.37244 30.1371C7.19943 29.8275 7.11292 29.4916 7.11292 29.1293C7.11292 28.6976 7.22381 28.3281 7.44558 28.0208C7.66735 27.7135 7.98681 27.4772 8.40395 27.3118C8.82108 27.1464 9.32104 27.0637 9.90381 27.0637H11.5925C11.5925 26.6741 11.539 26.3509 11.4321 26.094C11.3252 25.8372 11.1611 25.6441 10.9401 25.5147C10.719 25.3854 10.4368 25.3207 10.0936 25.3207C9.7096 25.3207 9.38016 25.4133 9.1053 25.5985C8.83044 25.7836 8.66074 26.057 8.59618 26.4185H7.2941C7.34469 25.9562 7.50048 25.5638 7.76148 25.2411C8.02249 24.9184 8.3584 24.6709 8.76923 24.4985C9.18005 24.3261 9.62231 24.2399 10.096 24.2399C10.7061 24.2399 11.219 24.3481 11.6348 24.5643C12.0506 24.7805 12.3642 25.0854 12.5755 25.4789C12.7868 25.8724 12.8925 26.3405 12.8925 26.8832V31H11.7597L11.6541 29.888C11.566 30.0661 11.455 30.2323 11.3211 30.3864C11.1871 30.5405 11.0315 30.6747 10.8544 30.7888C10.6772 30.9029 10.4752 30.9926 10.2483 31.058C10.0214 31.1233 9.76842 31.156 9.48937 31.156ZM9.73268 30.0967C10.009 30.0967 10.259 30.0402 10.4828 29.9271C10.7065 29.8141 10.8988 29.6599 11.0595 29.4644C11.2202 29.269 11.3437 29.0481 11.4298 28.8017C11.516 28.5553 11.563 28.2978 11.571 28.0292V27.9804H10.0288C9.65987 27.9804 9.36036 28.0259 9.1303 28.1169C8.90025 28.208 8.73423 28.3338 8.63224 28.4945C8.53025 28.6552 8.47926 28.8391 8.47926 29.0462C8.47926 29.2613 8.52822 29.4476 8.62613 29.6052C8.72405 29.7628 8.86716 29.8841 9.05547 29.9692C9.24378 30.0542 9.46952 30.0967 9.73268 30.0967ZM18.1636 31.156C17.7945 31.156 17.4656 31.1045 17.1768 31.0014C16.888 30.8984 16.6365 30.7594 16.4222 30.5844C16.208 30.4095 16.0314 30.2143 15.8922 29.9989L15.7638 31H14.5965V21.64H15.8965V25.4155C16.1048 25.0749 16.3987 24.7938 16.7782 24.5723C17.1577 24.3507 17.6169 24.2399 18.1557 24.2399C18.7815 24.2399 19.3305 24.3892 19.8025 24.6876C20.2746 24.9861 20.6433 25.3951 20.9086 25.9148C21.1739 26.4344 21.3066 27.0282 21.3066 27.696C21.3066 28.3585 21.1743 28.9511 20.9096 29.4739C20.6449 29.9967 20.2767 30.4077 19.8051 30.707C19.3334 31.0063 18.7862 31.156 18.1636 31.156ZM17.9453 30.0253C18.3416 30.0253 18.6928 29.9289 18.9991 29.7361C19.3054 29.5433 19.546 29.2725 19.7211 28.9238C19.8961 28.5752 19.9836 28.167 19.9836 27.6992C19.9836 27.2324 19.8961 26.8242 19.7211 26.4745C19.546 26.1248 19.3054 25.8534 18.9991 25.6603C18.6928 25.4672 18.3416 25.3706 17.9453 25.3706C17.5404 25.3706 17.184 25.4673 16.8763 25.6605C16.5685 25.8538 16.3294 26.1248 16.1587 26.4737C15.9881 26.8225 15.9028 27.2309 15.9028 27.6988C15.9028 28.1658 15.9881 28.5739 16.1587 28.9231C16.3294 29.2723 16.5685 29.5433 16.8763 29.7361C17.184 29.9289 17.5404 30.0253 17.9453 30.0253ZM22.8515 31V21.64H24.1515V31H22.8515ZM28.9307 31.156C28.3112 31.156 27.7563 31.0124 27.2662 30.7253C26.7761 30.4382 26.3912 30.0345 26.1116 29.5144C25.8319 28.9943 25.6921 28.3898 25.6921 27.7009C25.6921 27.0033 25.8337 26.3954 26.1169 25.8772C26.4001 25.359 26.7884 24.9566 27.2819 24.6699C27.7754 24.3833 28.3319 24.2399 28.9514 24.2399C29.5794 24.2399 30.1376 24.3833 30.6259 24.6699C31.1143 24.9566 31.4983 25.3586 31.778 25.8758C32.0576 26.3931 32.1975 27.0012 32.1975 27.7002C32.1975 28.3909 32.0559 28.9959 31.7727 29.5154C31.4895 30.0349 31.102 30.4382 30.6103 30.7253C30.1186 31.0124 29.5587 31.156 28.9307 31.156ZM28.9337 30.0383C29.2884 30.0383 29.6117 29.9513 29.9037 29.7773C30.1957 29.6034 30.4296 29.3418 30.6054 28.9926C30.7812 28.6433 30.8691 28.2116 30.8691 27.6974C30.8691 27.1759 30.7831 26.7424 30.6112 26.3969C30.4392 26.0514 30.2079 25.7918 29.9173 25.6181C29.6267 25.4445 29.3052 25.3576 28.9529 25.3576C28.6082 25.3576 28.2886 25.4445 27.994 25.6181C27.6994 25.7918 27.4635 26.0516 27.2863 26.3976C27.1091 26.7437 27.0205 27.1774 27.0205 27.6988C27.0205 28.2125 27.1084 28.6438 27.2842 28.9929C27.46 29.3419 27.6923 29.6034 27.9813 29.7773C28.2702 29.9513 28.5877 30.0383 28.9337 30.0383ZM27.7145 23.8369L27.5062 22.9562L30.1282 21.2967L30.3989 22.3373L27.7145 23.8369ZM33.7325 31V24.3959H34.895L34.9763 25.4988C35.1786 25.1089 35.4696 24.8016 35.8491 24.577C36.2286 24.3523 36.6686 24.2399 37.169 24.2399C37.6858 24.2399 38.1305 24.3428 38.5031 24.5486C38.8758 24.7544 39.1646 25.0644 39.3694 25.4785C39.5742 25.8926 39.6766 26.4111 39.6766 27.0342V31H38.379V27.1655C38.379 26.5677 38.244 26.115 37.974 25.8072C37.704 25.4995 37.3182 25.3457 36.8168 25.3457C36.4812 25.3457 36.1785 25.4261 35.9086 25.5868C35.6386 25.7475 35.4251 25.9804 35.2681 26.2854C35.111 26.5904 35.0325 26.9647 35.0325 27.4084V31H33.7325Z" fill="#624325"/>
</svg>
