<svg width="41" height="36" viewBox="0 0 41 36" fill="none" xmlns="http://www.w3.org/2000/svg">
<path d="M21.21 6V0H29.21V6H21.21ZM11.21 10V0H19.21V10H11.21ZM21.21 18V8H29.21V18H21.21ZM11.21 18V12H19.21V18H11.21ZM13.21 8H17.21V2H13.21V8ZM23.21 16H27.21V10H23.21V16ZM23.21 4H27.21V2H23.21V4ZM13.21 16H17.21V14H13.21V16Z" fill="#4F453C"/>
<path d="M3.04579 31V22.9596H0.34732V21.9H7.0421V22.9596H4.34363V31H3.04579ZM9.45837 31.156C8.92543 31.156 8.48262 31.0636 8.12996 30.8788C7.7773 30.694 7.51446 30.4468 7.34144 30.1371C7.16843 29.8275 7.08192 29.4916 7.08192 29.1293C7.08192 28.6976 7.19281 28.3281 7.41458 28.0208C7.63635 27.7135 7.95581 27.4772 8.37295 27.3118C8.79008 27.1464 9.29004 27.0637 9.87281 27.0637H11.5615C11.5615 26.6741 11.508 26.3509 11.4011 26.094C11.2942 25.8372 11.1301 25.6441 10.9091 25.5147C10.688 25.3854 10.4058 25.3207 10.0626 25.3207C9.6786 25.3207 9.34916 25.4133 9.0743 25.5985C8.79944 25.7836 8.62974 26.057 8.56518 26.4185H7.2631C7.31369 25.9562 7.46948 25.5638 7.73048 25.2411C7.99149 24.9184 8.3274 24.6709 8.73823 24.4985C9.14905 24.3261 9.59131 24.2399 10.065 24.2399C10.6751 24.2399 11.188 24.3481 11.6038 24.5643C12.0196 24.7805 12.3332 25.0854 12.5445 25.4789C12.7558 25.8724 12.8615 26.3405 12.8615 26.8832V31H11.7287L11.6231 29.888C11.535 30.0661 11.424 30.2323 11.2901 30.3864C11.1561 30.5405 11.0005 30.6747 10.8234 30.7888C10.6462 30.9029 10.4442 30.9926 10.2173 31.058C9.99038 31.1233 9.73742 31.156 9.45837 31.156ZM9.70168 30.0967C9.978 30.0967 10.228 30.0402 10.4518 29.9271C10.6755 29.8141 10.8678 29.6599 11.0285 29.4644C11.1892 29.269 11.3127 29.0481 11.3988 28.8017C11.485 28.5553 11.532 28.2978 11.54 28.0292V27.9804H9.99783C9.62887 27.9804 9.32936 28.0259 9.0993 28.1169C8.86925 28.208 8.70323 28.3338 8.60124 28.4945C8.49925 28.6552 8.44826 28.8391 8.44826 29.0462C8.44826 29.2613 8.49722 29.4476 8.59513 29.6052C8.69305 29.7628 8.83616 29.8841 9.02447 29.9692C9.21278 30.0542 9.43852 30.0967 9.70168 30.0967ZM18.1326 31.156C17.7635 31.156 17.4346 31.1045 17.1458 31.0014C16.857 30.8984 16.6055 30.7594 16.3912 30.5844C16.177 30.4095 16.0004 30.2143 15.8612 29.9989L15.7328 31H14.5655V21.64H15.8655V25.4155C16.0738 25.0749 16.3677 24.7938 16.7472 24.5723C17.1267 24.3507 17.5859 24.2399 18.1247 24.2399C18.7505 24.2399 19.2995 24.3892 19.7715 24.6876C20.2436 24.9861 20.6123 25.3951 20.8776 25.9148C21.1429 26.4344 21.2756 27.0282 21.2756 27.696C21.2756 28.3585 21.1433 28.9511 20.8786 29.4739C20.6139 29.9967 20.2457 30.4077 19.7741 30.707C19.3024 31.0063 18.7552 31.156 18.1326 31.156ZM17.9143 30.0253C18.3106 30.0253 18.6618 29.9289 18.9681 29.7361C19.2744 29.5433 19.515 29.2725 19.6901 28.9238C19.8651 28.5752 19.9526 28.167 19.9526 27.6992C19.9526 27.2324 19.8651 26.8242 19.6901 26.4745C19.515 26.1248 19.2744 25.8534 18.9681 25.6603C18.6618 25.4672 18.3106 25.3706 17.9143 25.3706C17.5094 25.3706 17.153 25.4673 16.8453 25.6605C16.5375 25.8538 16.2984 26.1248 16.1277 26.4737C15.9571 26.8225 15.8718 27.2309 15.8718 27.6988C15.8718 28.1658 15.9571 28.5739 16.1277 28.9231C16.2984 29.2723 16.5375 29.5433 16.8453 29.7361C17.153 29.9289 17.5094 30.0253 17.9143 30.0253ZM22.8205 31V21.64H24.1205V31H22.8205ZM28.8997 31.156C28.2802 31.156 27.7253 31.0124 27.2352 30.7253C26.7451 30.4382 26.3602 30.0345 26.0806 29.5144C25.8009 28.9943 25.6611 28.3898 25.6611 27.7009C25.6611 27.0033 25.8027 26.3954 26.0859 25.8772C26.3691 25.359 26.7574 24.9566 27.2509 24.6699C27.7444 24.3833 28.3009 24.2399 28.9204 24.2399C29.5484 24.2399 30.1066 24.3833 30.5949 24.6699C31.0833 24.9566 31.4673 25.3586 31.747 25.8758C32.0266 26.3931 32.1665 27.0012 32.1665 27.7002C32.1665 28.3909 32.0249 28.9959 31.7417 29.5154C31.4585 30.0349 31.071 30.4382 30.5793 30.7253C30.0876 31.0124 29.5277 31.156 28.8997 31.156ZM28.9027 30.0383C29.2574 30.0383 29.5807 29.9513 29.8727 29.7773C30.1647 29.6034 30.3986 29.3418 30.5744 28.9926C30.7502 28.6433 30.8381 28.2116 30.8381 27.6974C30.8381 27.1759 30.7521 26.7424 30.5802 26.3969C30.4082 26.0514 30.1769 25.7918 29.8863 25.6181C29.5957 25.4445 29.2742 25.3576 28.9219 25.3576C28.5772 25.3576 28.2576 25.4445 27.963 25.6181C27.6684 25.7918 27.4325 26.0516 27.2553 26.3976C27.0781 26.7437 26.9895 27.1774 26.9895 27.6988C26.9895 28.2125 27.0774 28.6438 27.2532 28.9929C27.429 29.3419 27.6613 29.6034 27.9503 29.7773C28.2392 29.9513 28.5567 30.0383 28.9027 30.0383ZM27.6835 23.8369L27.4752 22.9562L30.0972 21.2967L30.3679 22.3373L27.6835 23.8369ZM33.7015 31V24.3959H34.864L34.9453 25.4988C35.1476 25.1089 35.4385 24.8016 35.8181 24.577C36.1976 24.3523 36.6376 24.2399 37.138 24.2399C37.6547 24.2399 38.0995 24.3428 38.4721 24.5486C38.8448 24.7544 39.1336 25.0644 39.3384 25.4785C39.5432 25.8926 39.6456 26.4111 39.6456 27.0342V31H38.348V27.1655C38.348 26.5677 38.213 26.115 37.943 25.8072C37.673 25.4995 37.2872 25.3457 36.7858 25.3457C36.4502 25.3457 36.1475 25.4261 35.8776 25.5868C35.6076 25.7475 35.3941 25.9804 35.2371 26.2854C35.08 26.5904 35.0015 26.9647 35.0015 27.4084V31H33.7015Z" fill="#4F453C"/>
</svg>
